<?xml version="1.0" encoding="utf-8"?>
<!-- Generator: Circuit Diagram, cdlibrary.dll 1.0.0.0 -->
<!DOCTYPE svg PUBLIC "-//W3C//DTD SVG 1.1//EN" "http://www.w3.org/Graphics/SVG/1.1/DTD/svg11.dtd">
<svg version="1.1" width="640" height="580" xmlns="http://www.w3.org/2000/svg">
	<line x1="40" y1="30" x2="55" y2="30" style="stroke:rgb(0,0,0);stroke-linecap:square;stroke-width:2" />
	<line x1="40" y1="50" x2="55" y2="50" style="stroke:rgb(0,0,0);stroke-linecap:square;stroke-width:2" />
	<path d="M 55,30 M 55,20 L 55,60 L 79,60 M 55,20 L 79,20 M 79,60 A 5,5 90 0 0 79,20" style="fill-opacity:0;fill:rgb(0,0,0);stroke:rgb(0,0,0);stroke-width:2" />
	<line x1="101" y1="40" x2="110" y2="40" style="stroke:rgb(0,0,0);stroke-linecap:square;stroke-width:2" />
	<line x1="40" y1="90" x2="55" y2="90" style="stroke:rgb(0,0,0);stroke-linecap:square;stroke-width:2" />
	<line x1="40" y1="110" x2="55" y2="110" style="stroke:rgb(0,0,0);stroke-linecap:square;stroke-width:2" />
	<path d="M 55,90 M 55,80 L 55,120 L 79,120 M 55,80 L 79,80 M 79,120 A 5,5 90 0 0 79,80" style="fill-opacity:0;fill:rgb(0,0,0);stroke:rgb(0,0,0);stroke-width:2" />
	<line x1="101" y1="100" x2="110" y2="100" style="stroke:rgb(0,0,0);stroke-linecap:square;stroke-width:2" />
	<line x1="40" y1="150" x2="55" y2="150" style="stroke:rgb(0,0,0);stroke-linecap:square;stroke-width:2" />
	<line x1="40" y1="170" x2="55" y2="170" style="stroke:rgb(0,0,0);stroke-linecap:square;stroke-width:2" />
	<path d="M 49,150 M 49,140 Q 69,160 49,180 M 48,180 Q 83,175 98,160 Q 83,145 48,140" style="fill-opacity:0;fill:rgb(0,0,0);stroke:rgb(0,0,0);stroke-width:2" />
	<line x1="100" y1="160" x2="110" y2="160" style="stroke:rgb(0,0,0);stroke-linecap:square;stroke-width:2" />
	<line x1="40" y1="270" x2="55" y2="270" style="stroke:rgb(0,0,0);stroke-linecap:square;stroke-width:2" />
	<line x1="40" y1="290" x2="55" y2="290" style="stroke:rgb(0,0,0);stroke-linecap:square;stroke-width:2" />
	<path d="M 49,270 M 49,260 Q 69,280 49,300 M 48,300 Q 83,295 98,280 Q 83,265 48,260" style="fill-opacity:0;fill:rgb(0,0,0);stroke:rgb(0,0,0);stroke-width:2" />
	<line x1="100" y1="280" x2="110" y2="280" style="stroke:rgb(0,0,0);stroke-linecap:square;stroke-width:2" />
	<line x1="40" y1="390" x2="55" y2="390" style="stroke:rgb(0,0,0);stroke-linecap:square;stroke-width:2" />
	<line x1="40" y1="410" x2="55" y2="410" style="stroke:rgb(0,0,0);stroke-linecap:square;stroke-width:2" />
	<path d="M 49,390 M 49,380 Q 69,400 49,420 M 48,420 Q 83,415 98,400 Q 83,385 48,380" style="fill-opacity:0;fill:rgb(0,0,0);stroke:rgb(0,0,0);stroke-width:2" />
	<line x1="100" y1="400" x2="110" y2="400" style="stroke:rgb(0,0,0);stroke-linecap:square;stroke-width:2" />
	<line x1="240" y1="60" x2="255" y2="60" style="stroke:rgb(0,0,0);stroke-linecap:square;stroke-width:2" />
	<line x1="240" y1="80" x2="255" y2="80" style="stroke:rgb(0,0,0);stroke-linecap:square;stroke-width:2" />
	<path d="M 249,60 M 249,50 Q 269,70 249,90 M 248,90 Q 283,85 298,70 Q 283,55 248,50" style="fill-opacity:0;fill:rgb(0,0,0);stroke:rgb(0,0,0);stroke-width:2" />
	<line x1="300" y1="70" x2="310" y2="70" style="stroke:rgb(0,0,0);stroke-linecap:square;stroke-width:2" />
	<line x1="340" y1="70" x2="347" y2="70" style="stroke:rgb(0,0,0);stroke-linecap:square;stroke-width:2" />
	<path d="M 349,60 M 349,70 L 349,88 L 377,70 L 349,52 L 349,70 M 377,70 A 2,2 -5 1 1 383,70 A 2,2 -5 1 1 377,70" style="fill-opacity:0;fill:rgb(0,0,0);stroke:rgb(0,0,0);stroke-width:2" />
	<line x1="385" y1="70" x2="410" y2="70" style="stroke:rgb(0,0,0);stroke-linecap:square;stroke-width:2" />
	<line x1="140" y1="100" x2="147" y2="100" style="stroke:rgb(0,0,0);stroke-linecap:square;stroke-width:2" />
	<path d="M 149,90 M 149,100 L 149,118 L 177,100 L 149,82 L 149,100 M 177,100 A 2,2 -5 1 1 183,100 A 2,2 -5 1 1 177,100" style="fill-opacity:0;fill:rgb(0,0,0);stroke:rgb(0,0,0);stroke-width:2" />
	<line x1="185" y1="100" x2="210" y2="100" style="stroke:rgb(0,0,0);stroke-linecap:square;stroke-width:2" />
	<line x1="40" y1="340" x2="47" y2="340" style="stroke:rgb(0,0,0);stroke-linecap:square;stroke-width:2" />
	<path d="M 49,330 M 49,340 L 49,358 L 77,340 L 49,322 L 49,340 M 77,340 A 2,2 -5 1 1 83,340 A 2,2 -5 1 1 77,340" style="fill-opacity:0;fill:rgb(0,0,0);stroke:rgb(0,0,0);stroke-width:2" />
	<line x1="85" y1="340" x2="110" y2="340" style="stroke:rgb(0,0,0);stroke-linecap:square;stroke-width:2" />
	<line x1="40" y1="220" x2="47" y2="220" style="stroke:rgb(0,0,0);stroke-linecap:square;stroke-width:2" />
	<path d="M 49,210 M 49,220 L 49,238 L 77,220 L 49,202 L 49,220 M 77,220 A 2,2 -5 1 1 83,220 A 2,2 -5 1 1 77,220" style="fill-opacity:0;fill:rgb(0,0,0);stroke:rgb(0,0,0);stroke-width:2" />
	<line x1="85" y1="220" x2="110" y2="220" style="stroke:rgb(0,0,0);stroke-linecap:square;stroke-width:2" />
	<line x1="40" y1="450" x2="55" y2="450" style="stroke:rgb(0,0,0);stroke-linecap:square;stroke-width:2" />
	<line x1="40" y1="470" x2="55" y2="470" style="stroke:rgb(0,0,0);stroke-linecap:square;stroke-width:2" />
	<path d="M 55,450 M 55,440 L 55,480 L 79,480 M 55,440 L 79,440 M 79,480 A 5,5 90 0 0 79,440" style="fill-opacity:0;fill:rgb(0,0,0);stroke:rgb(0,0,0);stroke-width:2" />
	<line x1="101" y1="460" x2="110" y2="460" style="stroke:rgb(0,0,0);stroke-linecap:square;stroke-width:2" />
	<line x1="240" y1="160" x2="255" y2="160" style="stroke:rgb(0,0,0);stroke-linecap:square;stroke-width:2" />
	<line x1="240" y1="180" x2="255" y2="180" style="stroke:rgb(0,0,0);stroke-linecap:square;stroke-width:2" />
	<path d="M 255,160 M 255,150 L 255,190 L 279,190 M 255,150 L 279,150 M 279,190 A 5,5 90 0 0 279,150" style="fill-opacity:0;fill:rgb(0,0,0);stroke:rgb(0,0,0);stroke-width:2" />
	<line x1="301" y1="170" x2="310" y2="170" style="stroke:rgb(0,0,0);stroke-linecap:square;stroke-width:2" />
	<line x1="140" y1="420" x2="155" y2="420" style="stroke:rgb(0,0,0);stroke-linecap:square;stroke-width:2" />
	<line x1="140" y1="440" x2="155" y2="440" style="stroke:rgb(0,0,0);stroke-linecap:square;stroke-width:2" />
	<path d="M 155,420 M 155,410 L 155,450 L 179,450 M 155,410 L 179,410 M 179,450 A 5,5 90 0 0 179,410" style="fill-opacity:0;fill:rgb(0,0,0);stroke:rgb(0,0,0);stroke-width:2" />
	<line x1="201" y1="430" x2="210" y2="430" style="stroke:rgb(0,0,0);stroke-linecap:square;stroke-width:2" />
	<line x1="140" y1="300" x2="155" y2="300" style="stroke:rgb(0,0,0);stroke-linecap:square;stroke-width:2" />
	<line x1="140" y1="320" x2="155" y2="320" style="stroke:rgb(0,0,0);stroke-linecap:square;stroke-width:2" />
	<path d="M 155,300 M 155,290 L 155,330 L 179,330 M 155,290 L 179,290 M 179,330 A 5,5 90 0 0 179,290" style="fill-opacity:0;fill:rgb(0,0,0);stroke:rgb(0,0,0);stroke-width:2" />
	<line x1="201" y1="310" x2="210" y2="310" style="stroke:rgb(0,0,0);stroke-linecap:square;stroke-width:2" />
	<line x1="440" y1="120" x2="455" y2="120" style="stroke:rgb(0,0,0);stroke-linecap:square;stroke-width:2" />
	<line x1="440" y1="140" x2="455" y2="140" style="stroke:rgb(0,0,0);stroke-linecap:square;stroke-width:2" />
	<path d="M 455,120 M 455,110 L 455,150 L 479,150 M 455,110 L 479,110 M 479,150 A 5,5 90 0 0 479,110" style="fill-opacity:0;fill:rgb(0,0,0);stroke:rgb(0,0,0);stroke-width:2" />
	<line x1="501" y1="130" x2="510" y2="130" style="stroke:rgb(0,0,0);stroke-linecap:square;stroke-width:2" />
	<line x1="240" y1="350" x2="255" y2="350" style="stroke:rgb(0,0,0);stroke-linecap:square;stroke-width:2" />
	<line x1="240" y1="370" x2="255" y2="370" style="stroke:rgb(0,0,0);stroke-linecap:square;stroke-width:2" />
	<path d="M 249,350 M 249,340 Q 269,360 249,380 M 248,380 Q 283,375 298,360 Q 283,345 248,340" style="fill-opacity:0;fill:rgb(0,0,0);stroke:rgb(0,0,0);stroke-width:2" />
	<line x1="300" y1="360" x2="310" y2="360" style="stroke:rgb(0,0,0);stroke-linecap:square;stroke-width:2" />
	<line x1="340" y1="440" x2="355" y2="440" style="stroke:rgb(0,0,0);stroke-linecap:square;stroke-width:2" />
	<line x1="340" y1="460" x2="355" y2="460" style="stroke:rgb(0,0,0);stroke-linecap:square;stroke-width:2" />
	<path d="M 355,440 M 355,430 L 355,470 L 379,470 M 355,430 L 379,430 M 379,470 A 5,5 90 0 0 379,430" style="fill-opacity:0;fill:rgb(0,0,0);stroke:rgb(0,0,0);stroke-width:2" />
	<line x1="401" y1="450" x2="410" y2="450" style="stroke:rgb(0,0,0);stroke-linecap:square;stroke-width:2" />
	<line x1="540" y1="310" x2="555" y2="310" style="stroke:rgb(0,0,0);stroke-linecap:square;stroke-width:2" />
	<line x1="540" y1="330" x2="555" y2="330" style="stroke:rgb(0,0,0);stroke-linecap:square;stroke-width:2" />
	<path d="M 555,310 M 555,300 L 555,340 L 579,340 M 555,300 L 579,300 M 579,340 A 5,5 90 0 0 579,300" style="fill-opacity:0;fill:rgb(0,0,0);stroke:rgb(0,0,0);stroke-width:2" />
	<line x1="601" y1="320" x2="610" y2="320" style="stroke:rgb(0,0,0);stroke-linecap:square;stroke-width:2" />
	<text x="30" y="30" style="font-family:Arial;font-size:11px;text-anchor:start" dy=".3em">0</text>
	<text x="30" y="50" style="font-family:Arial;font-size:11px;text-anchor:start" dy=".3em">1</text>
	<text x="30" y="90" style="font-family:Arial;font-size:11px;text-anchor:start" dy=".3em">2</text>
	<text x="30" y="110" style="font-family:Arial;font-size:11px;text-anchor:start" dy=".3em">3</text>
	<text x="30" y="150" style="font-family:Arial;font-size:11px;text-anchor:start" dy=".3em">4</text>
	<text x="30" y="170" style="font-family:Arial;font-size:11px;text-anchor:start" dy=".3em">5</text>
	<text x="30" y="220" style="font-family:Arial;font-size:11px;text-anchor:start" dy=".3em">6</text>
	<text x="30" y="270" style="font-family:Arial;font-size:11px;text-anchor:start" dy=".3em">7</text>
	<text x="30" y="290" style="font-family:Arial;font-size:11px;text-anchor:start" dy=".3em">8</text>
	<text x="30" y="340" style="font-family:Arial;font-size:11px;text-anchor:start" dy=".3em">9</text>
	<text x="20" y="390" style="font-family:Arial;font-size:11px;text-anchor:start" dy=".3em">10</text>
	<text x="20" y="410" style="font-family:Arial;font-size:11px;text-anchor:start" dy=".3em">11</text>
	<text x="20" y="450" style="font-family:Arial;font-size:11px;text-anchor:start" dy=".3em">12</text>
	<text x="20" y="470" style="font-family:Arial;font-size:11px;text-anchor:start" dy=".3em">13</text>
	<text x="20" y="520" style="font-family:Arial;font-size:11px;text-anchor:start" dy=".3em">14</text>
	<line x1="40" y1="520" x2="55" y2="520" style="stroke:rgb(0,0,0);stroke-linecap:square;stroke-width:2" />
	<line x1="40" y1="540" x2="55" y2="540" style="stroke:rgb(0,0,0);stroke-linecap:square;stroke-width:2" />
	<path d="M 55,520 M 55,510 L 55,550 L 79,550 M 55,510 L 79,510 M 79,550 A 5,5 90 0 0 79,510" style="fill-opacity:0;fill:rgb(0,0,0);stroke:rgb(0,0,0);stroke-width:2" />
	<line x1="101" y1="530" x2="110" y2="530" style="stroke:rgb(0,0,0);stroke-linecap:square;stroke-width:2" />
	<text x="20" y="540" style="font-family:Arial;font-size:11px;text-anchor:start" dy=".3em">15</text>
	<line x1="110" y1="100" x2="140" y2="100" style="stroke:rgb(0,0,0);stroke-linecap:square;stroke-width:2" />
	<line x1="110" y1="40" x2="240" y2="40" style="stroke:rgb(0,0,0);stroke-linecap:square;stroke-width:2" />
	<line x1="240" y1="40" x2="240" y2="60" style="stroke:rgb(0,0,0);stroke-linecap:square;stroke-width:2" />
	<line x1="210" y1="100" x2="240" y2="100" style="stroke:rgb(0,0,0);stroke-linecap:square;stroke-width:2" />
	<line x1="240" y1="80" x2="240" y2="100" style="stroke:rgb(0,0,0);stroke-linecap:square;stroke-width:2" />
	<line x1="110" y1="160" x2="240" y2="160" style="stroke:rgb(0,0,0);stroke-linecap:square;stroke-width:2" />
	<line x1="110" y1="220" x2="240" y2="220" style="stroke:rgb(0,0,0);stroke-linecap:square;stroke-width:2" />
	<line x1="240" y1="180" x2="240" y2="220" style="stroke:rgb(0,0,0);stroke-linecap:square;stroke-width:2" />
	<line x1="310" y1="70" x2="340" y2="70" style="stroke:rgb(0,0,0);stroke-linecap:square;stroke-width:2" />
	<line x1="410" y1="70" x2="440" y2="70" style="stroke:rgb(0,0,0);stroke-linecap:square;stroke-width:2" />
	<line x1="440" y1="70" x2="440" y2="120" style="stroke:rgb(0,0,0);stroke-linecap:square;stroke-width:2" />
	<line x1="310" y1="170" x2="440" y2="170" style="stroke:rgb(0,0,0);stroke-linecap:square;stroke-width:2" />
	<line x1="440" y1="140" x2="440" y2="170" style="stroke:rgb(0,0,0);stroke-linecap:square;stroke-width:2" />
	<line x1="110" y1="530" x2="340" y2="530" style="stroke:rgb(0,0,0);stroke-linecap:square;stroke-width:2" />
	<line x1="110" y1="460" x2="140" y2="460" style="stroke:rgb(0,0,0);stroke-linecap:square;stroke-width:2" />
	<line x1="140" y1="440" x2="140" y2="460" style="stroke:rgb(0,0,0);stroke-linecap:square;stroke-width:2" />
	<line x1="110" y1="400" x2="140" y2="400" style="stroke:rgb(0,0,0);stroke-linecap:square;stroke-width:2" />
	<line x1="140" y1="400" x2="140" y2="420" style="stroke:rgb(0,0,0);stroke-linecap:square;stroke-width:2" />
	<line x1="210" y1="430" x2="240" y2="430" style="stroke:rgb(0,0,0);stroke-linecap:square;stroke-width:2" />
	<line x1="240" y1="370" x2="240" y2="430" style="stroke:rgb(0,0,0);stroke-linecap:square;stroke-width:2" />
	<line x1="210" y1="310" x2="240" y2="310" style="stroke:rgb(0,0,0);stroke-linecap:square;stroke-width:2" />
	<line x1="240" y1="310" x2="240" y2="350" style="stroke:rgb(0,0,0);stroke-linecap:square;stroke-width:2" />
	<line x1="110" y1="340" x2="140" y2="340" style="stroke:rgb(0,0,0);stroke-linecap:square;stroke-width:2" />
	<line x1="140" y1="320" x2="140" y2="340" style="stroke:rgb(0,0,0);stroke-linecap:square;stroke-width:2" />
	<line x1="110" y1="280" x2="140" y2="280" style="stroke:rgb(0,0,0);stroke-linecap:square;stroke-width:2" />
	<line x1="140" y1="280" x2="140" y2="300" style="stroke:rgb(0,0,0);stroke-linecap:square;stroke-width:2" />
	<line x1="340" y1="460" x2="340" y2="530" style="stroke:rgb(0,0,0);stroke-linecap:square;stroke-width:2" />
	<line x1="310" y1="360" x2="340" y2="360" style="stroke:rgb(0,0,0);stroke-linecap:square;stroke-width:2" />
	<line x1="340" y1="360" x2="340" y2="440" style="stroke:rgb(0,0,0);stroke-linecap:square;stroke-width:2" />
	<line x1="410" y1="450" x2="540" y2="450" style="stroke:rgb(0,0,0);stroke-linecap:square;stroke-width:2" />
	<line x1="540" y1="330" x2="540" y2="450" style="stroke:rgb(0,0,0);stroke-linecap:square;stroke-width:2" />
	<line x1="510" y1="130" x2="540" y2="130" style="stroke:rgb(0,0,0);stroke-linecap:square;stroke-width:2" />
	<line x1="540" y1="130" x2="540" y2="310" style="stroke:rgb(0,0,0);stroke-linecap:square;stroke-width:2" />
</svg>